<?xml version="1.0" encoding="UTF-8"?>
<svg enable-background="new 46 97 631.5 96" version="1.1" viewBox="46 97 631.5 96" xmlns="http://www.w3.org/2000/svg">
 <style type="text/css">.st0{fill:#1670B9;} .st1{fill:#74CDD9;}</style>
 <path class="st0" d="m625.1 119.4c-12 0-36 55-48.8 55h13.7c12.8 0 37.5-55 49.5-55h-14.4z"/>
 <path class="st0" d="m650.8 119.4c-12 0-36 55-48.8 55h13.7c12.8 0 37.5-55 49.5-55h-14.4z"/>
 <path class="st0" d="m532.2 119.4c-12 0-36 55-48.8 55h13.7c12.8 0 37.5-55 49.5-55h-14.4z"/>
 <path class="st0" d="m557.8 119.4c-12 0-36 55-48.8 55h13.7c12.8 0 37.5-55 49.5-55h-14.4z"/>
 <path class="st0" d="m437.7 119.4c-12 0-36 55-48.8 55h13.7c12.8 0 37.5-55 49.5-55h-14.4z"/>
 <path class="st0" d="m463.3 119.4c-12 0-36 55-48.8 55h13.7c12.8 0 37.5-55 49.5-55h-14.4z"/>
 <path class="st0" d="m341.2 119.4c-12 0-36 55-48.8 55h13.7c12.8 0 37.5-55 49.5-55h-14.4z"/>
 <path class="st0" d="m366.9 119.4c-12 0-36 55-48.8 55h13.7c12.8 0 37.5-55 49.5-55h-14.4z"/>
 <path class="st0" d="m248.3 119.4c-12 0-36 55-48.8 55h13.7c12.8 0 37.5-55 49.5-55h-14.4z"/>
 <path class="st0" d="m273.9 119.4c-12 0-36 55-48.8 55h13.7c12.8 0 37.5-55 49.5-55h-14.4z"/>
 <path class="st0" d="m153.8 119.4c-12 0-36 55-48.8 55h13.7c12.8 0 37.5-55 49.5-55h-14.4z"/>
 <path class="st0" d="m179.4 119.4c-12 0-36 55-48.8 55h13.7c12.8 0 37.5-55 49.5-55h-14.4z"/>
 <path class="st1" d="m165.9 119.4c12 0 36 55 48.8 55h-13.7c-12.8 0-37.5-55-49.5-55h14.4z"/>
 <path class="st1" d="m568.4 119.4c12 0 36 55 48.8 55h-13.7c-12.8 0-37.5-55-49.5-55h14.4z"/>
 <path class="st1" d="m542.7 119.4c12 0 36 55 48.8 55h-13.7c-12.8 0-37.5-55-49.5-55h14.4z"/>
 <path class="st1" d="m475.4 119.4c12 0 36 55 48.8 55h-13.7c-12.8 0-37.5-55-49.5-55h14.4z"/>
 <path class="st1" d="m449.8 119.4c12 0 36 55 48.8 55h-13.7c-12.8 0-37.5-55-49.5-55h14.4z"/>
 <path class="st1" d="m380.9 119.4c12 0 36 55 48.8 55h-13.7c-12.8 0-37.5-55-49.5-55h14.4z"/>
 <path class="st1" d="m355.3 119.4c12 0 36 55 48.8 55h-13.7c-12.8 0-37.5-55-49.5-55h14.4z"/>
 <path class="st1" d="m284.5 119.4c12 0 36 55 48.8 55h-13.7c-12.8 0-37.5-55-49.5-55h14.4z"/>
 <path class="st1" d="m258.8 119.4c12 0 36 55 48.8 55h-13.7c-12.8 0-37.5-55-49.5-55h14.4z"/>
 <path class="st1" d="m191.5 119.4c12 0 36 55 48.8 55h-13.7c-12.8 0-37.5-55-49.5-55h14.4z"/>
 <path class="st1" d="m97 119.4c12 0 36 55 48.8 55h-13.7c-12.8 0-37.5-55-49.5-55h14.4z"/>
 <path class="st1" d="m71.4 119.4c12 0 36 55 48.8 55h-13.8c-12.8 0-37.5-55-49.5-55h14.5z"/>
</svg>
